# File created by Blade
# Date/Time:  Thu Jan 22 15:33:01 2015
# Frame Rate: 120.000 fps
#------------------------------------------------------
:FULLY-SPECIFIED
:DEGREES
2124
root -11.716044 5.712592 6.271708 336.626825 -78.190406 -441.070002
RightUpLeg -115.755460 -2.833097 -2.222269
RightLeg 121.747779 -0.000000 -0.000000
RightFoot 40.172836 33.316844 -33.181483
RightToeBase -91.181432 -0.000000 0.000000
LeftUpLeg -116.674566 -13.744304 -3.480810
LeftLeg 119.846695 -0.000000 -0.000000
LeftFoot 37.342224 -8.210568 -6.266636
LeftToeBase 41.106745 -0.000000 -0.000000
Spine 20.883786 -3.529670 -0.961977
RightShoulder -178.818136 5.799833 158.569417
RightArm 173.576250 22.978515 98.082294
RightForeArm 26.162642 0.000000 75.256100
RightHand 14.712005 -0.000000 -3.605545
RightHandThumb1 -24.326973 -0.000000 -32.862282
LeftShoulder -4.401831 20.964804 20.034544
LeftArm 20.755363 9.726941 -78.638305
LeftForeArm 24.872095 -0.000000 93.981726
LeftHand -25.957330 -0.000000 -10.406839
LeftHandThumb1 -26.253704 0.000000 33.147579
Head 70.268320 -1.320676 9.253278
2125
root -11.883950 5.477012 6.283609 336.533139 -77.813443 -439.057607
RightUpLeg -115.829363 -3.291596 -2.306846
RightLeg 122.423680 -0.000000 -0.000000
RightFoot 39.989343 33.383528 -33.473517
RightToeBase -91.803919 -0.000000 0.000000
LeftUpLeg -116.704413 -14.132366 -3.774674
LeftLeg 120.466806 -0.000000 -0.000000
LeftFoot 37.153282 -8.301653 -6.125349
LeftToeBase 41.260193 -0.000000 -0.000000
Spine 20.362463 -3.654137 -1.167189
RightShoulder -179.022584 5.648700 158.971894
RightArm 174.352896 23.061020 98.817652
RightForeArm 26.197931 0.000000 74.207499
RightHand 15.035450 -0.000000 -3.844332
RightHandThumb1 -24.326973 -0.000000 -32.862282
LeftShoulder -3.947389 21.154119 19.937608
LeftArm 21.417874 9.803629 -78.867687
LeftForeArm 24.437659 0.000000 92.776385
LeftHand -25.891032 -0.000000 -9.483897
LeftHandThumb1 -26.253704 0.000000 33.147579
Head 70.301517 -1.409892 10.096422
2126
root -12.041956 5.242482 6.300747 337.286003 -77.473375 -437.943789
RightUpLeg -115.761582 -3.857849 -2.264226
RightLeg 122.921157 -0.000000 -0.000000
RightFoot 39.675650 33.775011 -33.893382
RightToeBase -92.251609 -0.000000 0.000000
LeftUpLeg -116.688283 -14.583478 -3.836218
LeftLeg 120.927231 -0.000000 -0.000000
LeftFoot 37.112103 -8.428293 -6.134127
LeftToeBase 41.434273 -0.000000 -0.000000
Spine 19.909965 -3.897103 -1.045584
RightShoulder -179.289815 5.460238 159.196744
RightArm 175.008636 22.870725 99.331610
RightForeArm 25.971731 -0.000000 73.250172
RightHand 15.058763 -0.000000 -3.725230
RightHandThumb1 -24.326973 -0.000000 -32.862282
LeftShoulder -3.640645 21.128742 19.424565
LeftArm 22.041529 9.872279 -78.814616
LeftForeArm 24.504131 -0.000000 91.490378
LeftHand -25.880703 -0.000000 -8.789132
LeftHandThumb1 -26.253704 0.000000 33.147579
Head 70.302227 -1.230795 10.472440
2127
root -12.189705 5.006437 6.386098 337.121905 -77.160077 -435.728282
RightUpLeg -115.867961 -4.624063 -2.473961
RightLeg 123.299858 -0.000000 -0.000000
RightFoot 39.338318 34.416223 -34.321897
RightToeBase -92.549689 -0.000000 0.000000
LeftUpLeg -116.748514 -15.211152 -4.055527
LeftLeg 121.261689 -0.000000 -0.000000
LeftFoot 36.956686 -8.408725 -6.176322
LeftToeBase 41.528446 -0.000000 -0.000000
Spine 19.230533 -4.199525 -0.956839
RightShoulder -179.507117 5.277462 159.171594
RightArm 175.833368 22.937330 99.978804
RightForeArm 25.686368 -0.000000 72.211315
RightHand 15.034217 -0.000000 -3.829740
RightHandThumb1 -24.326973 -0.000000 -32.862282
LeftShoulder -3.405265 20.918552 18.723310
LeftArm 22.376433 9.983780 -78.907616
LeftForeArm 24.415177 0.000000 90.182628
LeftHand -25.874183 -0.000000 -8.288493
LeftHandThumb1 -26.253704 0.000000 33.147579
Head 70.445796 -0.938978 10.553643
2128
root -12.358107 4.786737 6.409036 336.821047 -76.949600 -433.529999
RightUpLeg -115.876939 -4.998844 -2.694617
RightLeg 123.637150 -0.000000 -0.000000
RightFoot 38.958937 34.905208 -34.718827
RightToeBase -93.281763 -0.000000 0.000000
LeftUpLeg -116.759321 -15.474571 -4.214096
LeftLeg 121.585713 -0.000000 -0.000000
LeftFoot 36.985636 -8.555454 -6.469286
LeftToeBase 41.484349 -0.000000 -0.000000
Spine 18.724925 -4.599630 -1.251556
RightShoulder -180.201465 5.147076 159.363524
RightArm 176.644128 22.975780 100.697171
RightForeArm 25.425078 0.000000 71.316560
RightHand 15.426277 -0.000000 -4.238527
RightHandThumb1 -24.326973 -0.000000 -32.862282
LeftShoulder -3.415423 21.029755 18.419069
LeftArm 22.864032 9.903551 -79.197645
LeftForeArm 23.718180 -0.000000 88.997633
LeftHand -25.969675 -0.000000 -8.184398
LeftHandThumb1 -26.253704 0.000000 33.147579
Head 70.396968 -0.613499 11.249136
